<svg height="512pt" viewBox="-36 0 511 512" width="512pt" xmlns="http://www.w3.org/2000/svg"><path d="m264.171875 36.570312v438.90625c0 16-12.980469 28.980469-28.996094 28.980469h-197.953125c-16.015625 0-28.992187-12.980469-28.992187-28.980469v-438.90625c0-16.003906 12.976562-28.984374 28.992187-28.984374h197.953125c16.015625 0 28.996094 12.980468 28.996094 28.984374zm0 0" fill="#d2d2d7"/><path d="m264.171875 36.570312v438.90625c0 16-12.980469 28.980469-28.996094 28.980469h-162.519531c-16.015625 0-28.996094-12.980469-28.996094-28.980469v-438.90625c0-16.003906 12.980469-28.984374 28.996094-28.984374h162.519531c16.015625 0 28.996094 12.980468 28.996094 28.984374zm0 0" fill="#ebebf0"/><path d="m45.996094 7.582031 12.941406 56.03125c.882812 3.820313 4.285156 6.523438 8.203125 6.523438h138.121094c3.921875 0 7.324219-2.703125 8.203125-6.523438l12.941406-56.03125c-37.472656 0-143.003906 0-180.410156 0zm0 0" fill="#b9b9be"/><path d="m239.546875 106.746094v356.667968c0 4.574219-3.710937 8.269532-8.269531 8.269532h-190.144532c-4.570312 0-8.265624-3.695313-8.265624-8.269532v-356.667968c0-4.570313 3.695312-8.269532 8.265624-8.269532h190.144532c4.558594 0 8.269531 3.699219 8.269531 8.269532zm0 0" fill="#FF79DA"/><path d="m239.546875 106.746094v356.667968c0 4.574219-3.710937 8.269532-8.269531 8.269532h-154.714844c-4.570312 0-8.265625-3.695313-8.265625-8.269532v-356.667968c0-4.570313 3.695313-8.269532 8.265625-8.269532h154.714844c4.558594 0 8.269531 3.699219 8.269531 8.269532zm0 0" fill="#9356DC"/><path d="m52.363281 242.082031c-1.039062-1.605469-.664062-3.742187.878907-4.875l29.167968-21.453125 112.574219-82.796875c9.566406-7.035156 23.066406-.207031 23.066406 11.664063v182.070312c0 1.980469-1.621093 3.597656-3.601562 3.597656h-.019531c-67.949219 0-127.695313-35.125-162.066407-88.207031zm0 0" fill="#f29500"/><path d="m82.410156 215.753906 112.578125-82.796875c9.5625-7.035156 23.0625-.207031 23.0625 11.664063v144.035156c-.003906.003906-.003906.003906-.007812.007812-56.730469.234376-106.691407-28.820312-135.632813-72.910156zm0 0" fill="#ffb52d"/><path d="m395.652344 407.226562-74.511719 47.4375c-8.902344 5.664063-20.816406 3.015626-26.488281-5.875l-9.386719-14.761718c-.90625-1.429688-2.40625-2.363282-4.085937-2.574219l-57.359376-7.011719c-11.710937-1.441406-20.472656-12.234375-18.882812-23.925781 1.550781-11.398437 12.082031-19.550781 23.542969-18.152344l13.964843 1.511719c3.5625.390625 6.277344-2.476562 6.277344-5.625 0-3.109375 2.511719 2.953125-55.464844-88.738281-6.359374-10-3.3125-23.402344 6.800782-29.648438.414062-.25.835937-.492187 1.265625-.722656 9.902343-5.242187 22.207031-1.660156 28.222656 7.785156l50.316406 79.050781 54.648438-34.792968c8.90625-5.664063 20.828125-3.019532 26.492187 5.875l35.191406 55.296875 5.34375 8.390625c5.664063 8.894531 3.015626 20.816406-5.886718 26.480468zm0 0" fill="#fdc478"/><path d="m424.707031 450.136719-77.699219 49.46875c-6.609374 4.203125-15.453124 2.242187-19.667968-4.367188l-14.457032-22.71875c-3.574218-5.613281-1.921874-13.046875 3.691407-16.621093l11.800781-7.511719 69.621094-44.320313c5.605468-3.570312 13.050781-1.921875 16.621094 3.691406l9.707031 15.242188 4.75 7.464844c4.207031 6.613281 2.246093 15.464844-4.367188 19.671875zm0 0" fill="#FF79DA"/><path d="m424.324219 423-67.757813 43.140625c-6.609375 4.207031-15.453125 2.234375-19.667968-4.363281l-8.523438-13.390625 69.621094-44.320313c5.605468-3.570312 13.050781-1.921875 16.621094 3.691406zm0 0" fill="#9356DC"/><path d="m396.195312 372.355469-49.570312 32.011719c-19.738281 12.75-46.066406 7.234374-59.046875-12.355469l-87.519531-132.148438c.414062-.25.835937-.492187 1.265625-.722656 9.902343-5.242187 22.207031-1.660156 28.222656 7.785156l50.316406 79.050781 54.648438-34.792968c8.90625-5.664063 20.828125-3.019532 26.492187 5.875zm0 0" fill="#ffd993"/><path d="m229.394531 374.367188c-.035156-.003907-.03125-.003907 0 0zm0 0"/><path d="m435.867188 427.824219c-13.191407-19.058594-14.289063-26.773438-24.003907-30.609375 1.601563-6.882813.554688-14.378906-3.535156-20.792969l-40.535156-63.675781c-8.066407-12.667969-24.929688-16.421875-37.605469-8.351563l-47.859375 30.464844-10.785156-16.945313v-281.371093c0-20.152344-16.390625-36.542969-36.542969-36.542969-213.347656 0-128.367188 0-197.957031 0-.128907.03125-19.484375-.808594-30.796875 16.851562-2.246094 3.511719-1.21875 8.179688 2.28125 10.421876 3.511718 2.253906 8.179687 1.230468 10.425781-2.28125 7.457031-11.632813 20.015625-9.714844 20.851563-9.902344l11.59375 50.1875c1.679687 7.285156 8.078124 12.375 15.554687 12.375h138.132813c7.476562 0 13.871093-5.089844 15.554687-12.375l11.59375-50.1875h2.765625c11.832031 0 21.449219 9.621094 21.449219 21.453125v257.667969l-9.539063-14.980469v-172.515625c0-8.722656-7.089844-15.816406-15.8125-15.816406h-53.695312c-4.167969 0-7.546875 3.382812-7.546875 7.546874 0 4.164063 3.378906 7.546876 7.546875 7.546876h53.695312c.402344 0 .722656.320312.722656.722656v150.390625c-1.890624-1.820313-3.984374-3.359375-6.226562-4.605469v-107.875c0-18.042969-20.535156-28.445312-35.082031-17.746094-133.621094 98.277344 10.65625-7.847656-141.738281 104.25-4.734376 3.480469-5.960938 10.074219-2.746094 15.050782 37.164062 57.398437 100.113281 91.65625 168.417968 91.65625h.039063c.773437 1.214843 23.234375 36.496093 23.875 37.507812-.097656-.011719-8.46875-.921875-8.964844-.976562-15.746093-1.890626-30.292969 9.335937-32.425781 25.0625-2.226562 16.292968 9.859375 31.03125 25.878906 33l8.972656 1.09375c-.320312 30.378906.667969 30.605468-.722656 30.605468-202.300781-.339844-190.878906.714844-190.878906-.722656v-356.691406c0-.402344.324219-.722656.726562-.722656h106.273438c4.164062 0 7.546875-3.382813 7.546875-7.546876 0-4.164062-3.382813-7.546874-7.546875-7.546874h-106.273438c-8.722656 0-15.816406 7.09375-15.816406 15.816406v356.691406c0 8.722656 7.09375 15.816406 15.816406 15.816406h190.152344c8.722656 0 15.8125-7.09375 15.8125-15.816406v-28.03125l9.539063 1.167969v38.914062c0 11.832031-9.617188 21.453125-21.449219 21.453125h-197.957031c-11.832031 0-21.453125-9.621094-21.453125-21.453125v-425.234375c0-4.164062-3.378906-7.542968-7.542969-7.542968-4.175781 0-7.546875 3.378906-7.546875 7.542968v425.234375c0 20.152344 16.390625 36.542969 36.542969 36.542969h197.957031c20.152344 0 36.542969-16.390625 36.542969-36.542969v-37.074219l7.535156.925782c7.023437 9.273437 9.796875 21.125 24.125 25.285156-.789063 5.035156.332031 9.902344 2.890625 13.925781l14.460938 22.714844c6.683593 10.503906 20.542968 13.347656 30.777343 6.832031l21.457031-13.65625c3.75-2.390625 4.855469-7.363281 2.46875-11.113281-2.386718-3.75-7.363281-4.855469-11.113281-2.46875-21.96875 13.621094-21.621093 14.617187-24.746093 14.617187-2.160157 0-4.128907-1.066406-5.265626-2.855468l-14.460937-22.714844c-1.191406-1.871094-.632813-4.332031 1.222656-5.511719 87.765625-55.863281 81.75-52.457031 83.550781-52.457031 3.867188 0 3.179688 2.6875 17.839844 24.5625.625.984375.957032 2.121094.957032 3.289062 0 2.160157-1.066407 4.128907-2.855469 5.265626l-30.78125 19.59375c-3.75 2.390624-4.855469 7.363281-2.46875 11.113281 2.390625 3.75 7.363281 4.855469 11.113281 2.46875l30.78125-19.59375c10.503906-6.6875 13.351562-20.542969 6.835938-30.78125zm-230.78125-365.265625c-146.757813-.292969-138.679688.632812-138.984376-.675782l-10.804687-46.792968h161.449219c-11.492188 48.480468-10.324219 47.46875-11.660156 47.46875zm-5.632813 76.472656c4.578125-3.359375 11.046875-.128906 11.046875 5.59375v104.082031c-15.71875.25-28.089844 13.09375-28.582031 28.308594-35.585938-8.378906-67.246094-29.265625-89.140625-59.519531zm-138.71875 102.027344 19.890625-14.628906c25.605469 35.34375 63.355469 59.027343 105.539062 66.894531.179688.304687-1.460937-2.28125 18.5625 29.167969-58.152343-2.996094-111.203124-32.898438-143.992187-81.433594zm330.601563 159.375-74.511719 47.4375c-2.492188 1.589844-5.472657 2.101562-8.390625 1.460937-7.25-1.601562-8.039063-7.867187-16.378906-19.628906-2.210938-3.460937-5.816407-5.734375-9.898438-6.238281-.105469-.011719-31.035156-3.792969-50.335938-6.15625-4.242187-.984375-11.230468.347656-16.269531-6.167969-7.089843-9.214844.496094-22.085937 11.953125-20.789063 2.414063 0 14.875 2.40625 19.40625 1.058594 9.039063-2.601562 13.144532-13.648437 6.734375-22.09375-.664062-.925781.433594.703125-6.734375-10.515625-47.0625-73.949219-48.132812-74.261719-48.785156-78.875-2.035156-14.191406 16.699219-21.121093 24.628906-8.671875 8.085938 12.691406 50.085938 78.671875 50.316406 79.035156 2.394532 3.761719 7.375 4.859376 11.117188 2.476563l54.652344-34.789063c5.179687-3.300781 12.070312-1.773437 15.371094 3.410157l40.535156 63.675781c3.300781 5.179688 1.773437 12.082031-3.410156 15.371094zm0 0"/><path d="m85.3125 45.75h64.351562c4.167969 0 7.546876-3.378906 7.546876-7.542969 0-4.167969-3.378907-7.546875-7.546876-7.546875h-64.351562c-4.167969 0-7.546875 3.378906-7.546875 7.546875 0 4.164063 3.378906 7.542969 7.546875 7.542969zm0 0"/><path d="m186.730469 38.207031c0 5.277344-4.28125 9.554688-9.558594 9.554688-5.28125 0-9.558594-4.277344-9.558594-9.554688 0-5.28125 4.277344-9.558593 9.558594-9.558593 5.277344 0 9.558594 4.277343 9.558594 9.558593zm0 0"/><path d="m159.554688 203.429688c0 6.804687-5.515626 12.320312-12.316407 12.320312-6.804687 0-12.320312-5.515625-12.320312-12.320312 0-6.804688 5.515625-12.320313 12.320312-12.320313 6.800781 0 12.316407 5.515625 12.316407 12.320313zm0 0"/><path d="m199.046875 178.785156c0 6.804688-5.515625 12.320313-12.316406 12.320313-6.804688 0-12.320313-5.515625-12.320313-12.320313 0-6.804687 5.515625-12.320312 12.320313-12.320312 6.800781 0 12.316406 5.515625 12.316406 12.320312zm0 0"/><path d="m174.871094 244.398438c0 6.800781-5.515625 12.316406-12.316406 12.316406-6.804688 0-12.320313-5.515625-12.320313-12.316406 0-6.804688 5.515625-12.320313 12.320313-12.320313 6.800781 0 12.316406 5.515625 12.316406 12.320313zm0 0"/><path d="m68.613281 364.148438h134.816407c4.167968 0 7.542968-3.378907 7.542968-7.546876 0-4.164062-3.375-7.542968-7.542968-7.542968h-134.816407c-4.167969 0-7.546875 3.378906-7.546875 7.542968 0 4.167969 3.378906 7.546876 7.546875 7.546876zm0 0"/><path d="m68.613281 408.230469h112.582031c4.164063 0 7.542969-3.378907 7.542969-7.546875 0-4.167969-3.378906-7.546875-7.542969-7.546875h-112.582031c-4.167969 0-7.546875 3.378906-7.546875 7.546875 0 4.167968 3.378906 7.546875 7.546875 7.546875zm0 0"/><path d="m68.613281 450.675781h134.816407c4.167968 0 7.542968-3.375 7.542968-7.542969 0-4.167968-3.375-7.546874-7.542968-7.546874h-134.816407c-4.167969 0-7.546875 3.378906-7.546875 7.546874 0 4.167969 3.378906 7.542969 7.546875 7.542969zm0 0"/></svg>