<svg height="511pt" viewBox="-36 1 511 511.99975" width="511pt" xmlns="http://www.w3.org/2000/svg"><path d="m435.867188 427.824219c-13.191407-19.058594-14.289063-26.773438-24.003907-30.613281 1.601563-6.882813.550781-14.375-3.535156-20.792969l-40.535156-63.671875c-8.066407-12.667969-24.929688-16.421875-37.605469-8.351563l-47.859375 30.464844-10.789063-16.945313v-281.371093c0-20.152344-16.386718-36.542969-36.539062-36.542969-213.347656 0-128.367188 0-197.957031 0-.128907.0351562-19.484375-.808594-30.796875 16.851562-2.246094 3.511719-1.21875 8.179688 2.28125 10.425782 3.511718 2.253906 8.179687 1.226562 10.425781-2.285156 7.457031-11.628907 20.015625-9.714844 20.851563-9.898438l11.59375 50.183594c1.679687 7.285156 8.078124 12.375 15.554687 12.375h138.132813c7.476562 0 13.871093-5.089844 15.554687-12.375l11.589844-50.183594h2.769531c11.832031 0 21.449219 9.617188 21.449219 21.449219v257.667969l-9.539063-14.980469v-172.515625c0-8.722656-7.09375-15.816406-15.816406-15.816406h-53.695312c-4.164063 0-7.542969 3.382812-7.542969 7.546874 0 4.164063 3.378906 7.546876 7.542969 7.546876h53.695312c.402344 0 .726562.320312.726562.722656v150.390625c-1.890624-1.820313-3.984374-3.359375-6.230468-4.605469v-107.875c0-18.042969-20.535156-28.445312-35.082032-17.746094-68.75 50.566406-63.929687 47.019532-63.808593 46.929688-.109375.078125-5.660157 4.160156-77.929688 57.320312-4.730469 3.476563-5.957031 10.070313-2.746093 15.050782 37.167968 57.398437 100.117187 91.65625 168.421874 91.65625h.039063c.773437 1.214843 23.234375 36.496093 23.875 37.507812-.097656-.011719-8.46875-.925781-8.964844-.976562-15.746093-1.890626-30.292969 9.335937-32.425781 25.0625-2.226562 16.292968 9.855469 31.03125 25.875 33l8.976562 1.09375c-.320312 30.378906.667969 30.605468-.726562 30.605468-202.296875-.339844-190.875.714844-190.875-.722656v-356.691406c0-.402344.324219-.722656.726562-.722656h106.273438c4.164062 0 7.542969-3.382813 7.542969-7.546876 0-4.164062-3.378907-7.546874-7.542969-7.546874h-106.273438c-8.722656 0-15.816406 7.09375-15.816406 15.816406v356.691406c0 8.722656 7.09375 15.816406 15.816406 15.816406h190.152344c8.722656 0 15.8125-7.09375 15.8125-15.816406v-28.03125l9.539063 1.167969v38.914062c0 11.832031-9.617188 21.453125-21.449219 21.453125h-197.957031c-11.832031 0-21.453125-9.621094-21.453125-21.453125v-425.234375c0-4.164062-3.378906-7.542968-7.542969-7.542968-4.175781 0-7.546875 3.378906-7.546875 7.542968v425.234375c0 20.152344 16.390625 36.542969 36.542969 36.542969h197.957031c20.152344 0 36.539062-16.390625 36.539062-36.542969v-37.074219l7.539063.925782c7.023437 9.273437 9.796875 21.125 24.125 25.285156-.789063 5.035156.332031 9.902344 2.890625 13.925781l14.457031 22.714844c6.6875 10.503906 20.546875 13.347656 30.78125 6.832031l21.457031-13.65625c3.75-2.390625 4.855469-7.363281 2.46875-11.113281-2.386718-3.75-7.363281-4.855469-11.113281-2.46875-21.96875 13.621094-21.621093 14.617187-24.746093 14.617187-2.160157 0-4.128907-1.066406-5.265626-2.855468l-14.460937-22.714844c-1.191406-1.871094-.632813-4.332031 1.222656-5.511719 87.765625-55.863281 81.75-52.457031 83.550781-52.457031 3.867188 0 3.179688 2.6875 17.839844 24.5625.625.984375.957032 2.121094.957032 3.289062 0 2.160157-1.066407 4.128907-2.855469 5.265626l-30.78125 19.59375c-3.75 2.390624-4.855469 7.363281-2.46875 11.113281s7.363281 4.855469 11.113281 2.46875l30.78125-19.597657c10.503906-6.683593 13.351562-20.539062 6.835938-30.777343zm-230.78125-365.265625c-146.757813-.292969-138.679688.632812-138.984376-.675782l-10.804687-46.789062h161.449219c-11.492188 48.476562-10.324219 47.464844-11.660156 47.464844zm-5.632813 76.472656c4.578125-3.359375 11.046875-.128906 11.046875 5.59375v104.082031c-15.71875.25-28.089844 13.09375-28.582031 28.308594-35.585938-8.378906-67.246094-29.265625-89.140625-59.519531zm-138.71875 102.027344 19.890625-14.625c25.605469 35.34375 63.355469 59.027344 105.539062 66.894531.179688.300781-1.464843-2.285156 18.5625 29.164063-58.152343-2.996094-111.203124-32.898438-143.992187-81.433594zm330.601563 159.375-74.511719 47.4375c-2.496094 1.589844-5.472657 2.105468-8.390625 1.460937-7.25-1.601562-8.039063-7.867187-16.378906-19.628906-2.214844-3.460937-5.816407-5.734375-9.898438-6.238281-.105469-.011719-31.035156-3.792969-50.335938-6.15625-4.242187-.980469-11.230468.347656-16.269531-6.167969-7.089843-9.210937.496094-22.085937 11.953125-20.785156 2.410156 0 14.875 2.40625 19.40625 1.054687 9.039063-2.601562 13.144532-13.644531 6.730469-22.09375-.660156-.925781.4375.707032-6.730469-10.511718-47.0625-73.953126-48.136718-74.261719-48.785156-78.878907-2.035156-14.191406 16.699219-21.121093 24.628906-8.671875 8.085938 12.695313 50.082032 78.671875 50.316406 79.039063 2.394532 3.757812 7.375 4.855469 11.117188 2.472656l54.652344-34.789063c5.179687-3.300781 12.070312-1.769531 15.371094 3.410157l40.535156 63.675781c3.300781 5.179688 1.773437 12.082031-3.410156 15.371094zm0 0"/><path d="m85.3125 45.75h64.351562c4.167969 0 7.546876-3.378906 7.546876-7.546875 0-4.164063-3.378907-7.542969-7.546876-7.542969h-64.351562c-4.167969 0-7.546875 3.378906-7.546875 7.542969 0 4.167969 3.378906 7.546875 7.546875 7.546875zm0 0"/><path d="m186.726562 38.203125c0 5.28125-4.277343 9.558594-9.554687 9.558594-5.28125 0-9.558594-4.277344-9.558594-9.558594 0-5.277344 4.277344-9.554687 9.558594-9.554687 5.277344 0 9.554687 4.277343 9.554687 9.554687zm0 0"/><path d="m159.554688 203.429688c0 6.804687-5.515626 12.320312-12.320313 12.320312-6.800781 0-12.316406-5.515625-12.316406-12.320312 0-6.804688 5.515625-12.320313 12.316406-12.320313 6.804687 0 12.320313 5.515625 12.320313 12.320313zm0 0"/><path d="m199.046875 178.785156c0 6.804688-5.515625 12.320313-12.320313 12.320313-6.800781 0-12.316406-5.515625-12.316406-12.320313 0-6.804687 5.515625-12.320312 12.316406-12.320312 6.804688 0 12.320313 5.515625 12.320313 12.320312zm0 0"/><path d="m174.871094 244.398438c0 6.800781-5.515625 12.316406-12.316406 12.316406-6.804688 0-12.320313-5.515625-12.320313-12.316406 0-6.804688 5.515625-12.320313 12.320313-12.320313 6.800781 0 12.316406 5.515625 12.316406 12.320313zm0 0"/><path d="m68.613281 364.148438h134.816407c4.167968 0 7.542968-3.378907 7.542968-7.546876 0-4.164062-3.375-7.542968-7.542968-7.542968h-134.816407c-4.167969 0-7.546875 3.378906-7.546875 7.542968 0 4.167969 3.378906 7.546876 7.546875 7.546876zm0 0"/><path d="m68.613281 408.230469h112.582031c4.164063 0 7.542969-3.378907 7.542969-7.546875 0-4.167969-3.378906-7.546875-7.542969-7.546875h-112.582031c-4.167969 0-7.546875 3.378906-7.546875 7.546875 0 4.167968 3.378906 7.546875 7.546875 7.546875zm0 0"/><path d="m68.613281 450.675781h134.816407c4.167968 0 7.542968-3.375 7.542968-7.542969 0-4.167968-3.375-7.546874-7.542968-7.546874h-134.816407c-4.167969 0-7.546875 3.378906-7.546875 7.546874 0 4.167969 3.378906 7.542969 7.546875 7.542969zm0 0"/></svg>